<svg width="191" height="129" viewBox="0 0 191 129" fill="none" xmlns="http://www.w3.org/2000/svg">
<g clip-path="url(#clip0_305_83)">
<path d="M134 4.06048C134 1.82151 132.178 0 129.94 0H96.7646C95.6973 0 94.7255 0.414514 94 1.09028C93.2745 0.414514 92.3027 0 91.2354 0H58.0605C55.8215 0 54 1.82151 54 4.06048V37.2354C54 38.3027 54.4145 39.2745 55.0903 40C54.4145 40.7255 54 41.6973 54 42.7646V75.9395C54 78.1785 55.8215 80 58.0605 80H91.2354C92.3027 80 93.2745 79.5855 94 78.9097C94.7255 79.5855 95.6973 80 96.7646 80H129.94C132.178 80 134 78.1785 134 75.9395V42.7646C134 41.6973 133.585 40.7255 132.91 40C133.585 39.2745 134 38.3027 134 37.2354V4.06048ZM96.7646 2.59179H129.94C130.749 2.59179 131.408 3.25063 131.408 4.06048V37.2354C131.408 38.0453 130.749 38.7041 129.94 38.7041H118.698C117.989 38.7041 117.413 38.1275 117.413 37.4189V36.7753C117.413 36.3533 117.651 35.944 118.066 35.6525C120.691 33.8082 121.983 30.6835 121.435 27.4979C120.875 24.2355 118.332 21.591 115.107 20.9175C112.632 20.4005 110.107 21.003 108.179 22.5698C106.251 24.1368 105.145 26.4594 105.145 28.9417C105.145 31.6311 106.469 34.1526 108.688 35.6867C109.071 35.9521 109.292 36.3454 109.292 36.7656V37.4187C109.292 38.1275 108.715 38.7039 108.006 38.7039H95.2959V25.9934C95.2959 23.8557 93.5568 22.1166 91.4189 22.1166H90.7658C89.501 22.1166 88.3006 22.7603 87.5551 23.8383C86.5049 25.3569 84.7803 26.2635 82.9417 26.2635C81.2432 26.2635 79.6539 25.5065 78.5811 24.1864C77.4927 22.8473 77.0927 21.1554 77.4545 19.4225C77.9051 17.2646 79.7483 15.4949 81.9366 15.1191C84.1254 14.7426 86.2689 15.6266 87.5312 17.4239C88.315 18.5394 89.4972 19.1793 90.7751 19.1793H91.4189C93.5568 19.1793 95.2959 17.4402 95.2959 15.3023V4.06048C95.2959 3.25063 95.9547 2.59179 96.7646 2.59179ZM56.5918 4.06048C56.5918 3.25063 57.2506 2.59179 58.0605 2.59179H91.2354C92.0453 2.59179 92.7041 3.25063 92.7041 4.06048V15.3023C92.7041 16.0111 92.1277 16.5875 91.4189 16.5875H90.7751C90.3532 16.5875 89.9438 16.3494 89.6524 15.9343C87.8082 13.3087 84.6842 12.0168 81.4979 12.5648C78.2353 13.125 75.5908 15.6681 74.9173 18.8928C74.4003 21.3679 75.0027 23.8932 76.5697 25.8213C78.1368 27.7495 80.4593 28.8553 82.9417 28.8553C85.6311 28.8553 88.1527 27.5309 89.6867 25.3125C89.9523 24.9286 90.3456 24.7084 90.7658 24.7084H91.4189C92.1277 24.7084 92.7041 25.285 92.7041 25.9936V38.7041H79.9936C77.8557 38.7041 76.1166 40.4432 76.1166 42.5811V43.2342C76.1166 44.4992 76.7603 45.6995 77.8383 46.4449C79.3569 47.4951 80.2635 49.2197 80.2635 51.0583C80.2635 52.7568 79.5065 54.3463 78.1864 55.4189C76.8473 56.5071 75.1556 56.9075 73.4224 56.5453C71.2646 56.0949 69.4949 54.2518 69.119 52.0632C68.7432 49.8749 69.6263 47.7311 71.4238 46.4686C72.5393 45.685 73.1791 44.5026 73.1791 43.2249V42.5813C73.1793 40.4432 71.4402 38.7041 69.3023 38.7041H58.0605C57.2506 38.7041 56.5918 38.0453 56.5918 37.2354V4.06048ZM91.2354 77.4082H58.0605C57.2506 77.4082 56.5918 76.7494 56.5918 75.9395V42.7646C56.5918 41.9547 57.2506 41.2959 58.0605 41.2959H69.3023C70.0111 41.2959 70.5875 41.8725 70.5875 42.5811V43.2247C70.5875 43.6467 70.3494 44.056 69.9342 44.3475C67.3085 46.1918 66.0175 49.3163 66.5647 52.5018C67.1252 55.7645 69.6683 58.409 72.8926 59.0823C73.4739 59.2036 74.0575 59.2634 74.6359 59.2634C76.5206 59.2634 78.3457 58.6293 79.821 57.4303C81.7495 55.8633 82.8553 53.5407 82.8553 51.0583C82.8553 48.3689 81.5307 45.8473 79.3123 44.3133C78.9286 44.0479 78.7084 43.6546 78.7084 43.2344V42.5813C78.7084 41.8725 79.2848 41.2961 79.9936 41.2961H92.7041V54.0066C92.7041 56.1443 94.4434 57.8834 96.5811 57.8834H97.2247C98.5026 57.8834 99.685 57.2435 100.468 56.1279C101.731 54.3304 103.875 53.4474 106.063 53.8232C108.252 54.1992 110.095 55.9689 110.545 58.1268C110.907 59.8597 110.507 61.5516 109.419 62.8907C108.346 64.2106 106.757 64.9676 105.058 64.9676C103.22 64.9676 101.495 64.061 100.445 62.5422C99.6993 61.4644 98.4992 60.8207 97.2342 60.8207H96.5811C94.4434 60.8207 92.7041 62.5598 92.7041 64.6977V75.9395C92.7041 76.7494 92.0453 77.4082 91.2354 77.4082ZM131.408 75.9395C131.408 76.7494 130.749 77.4082 129.94 77.4082H96.7646C95.9547 77.4082 95.2959 76.7494 95.2959 75.9395V64.6977C95.2959 63.9889 95.8725 63.4125 96.5811 63.4125H97.2342C97.6544 63.4125 98.0477 63.6327 98.3131 64.0164C99.8473 66.235 102.369 67.5594 105.058 67.5594C107.541 67.5594 109.863 66.4536 111.43 64.5253C112.997 62.5975 113.599 60.0722 113.083 57.5969C112.409 54.3724 109.765 51.8293 106.502 51.2688C103.316 50.72 100.192 52.0124 98.3476 54.6381C98.056 55.0533 97.6468 55.2914 97.2247 55.2914H96.5811C95.8723 55.2914 95.2959 54.7148 95.2959 54.0062V41.2959H108.006C110.144 41.2959 111.883 39.5568 111.883 37.4189V36.7658C111.883 35.5008 111.24 34.3005 110.162 33.5551C108.643 32.5049 107.737 30.7803 107.737 28.9417C107.737 27.2432 108.493 25.6539 109.813 24.5813C111.152 23.4927 112.845 23.0929 114.577 23.4545C116.735 23.9051 118.505 25.7483 118.881 27.9366C119.257 30.1249 118.374 32.2689 116.576 33.5314C115.461 34.3152 114.821 35.4974 114.821 36.7753V37.4189C114.821 39.5568 116.56 41.2959 118.698 41.2959H129.94C130.749 41.2959 131.408 41.9547 131.408 42.7646V75.9395Z" fill="#D24848" stroke="#D24848" stroke-width="0.138229"/>
<path d="M118.905 77.25C118.612 77.25 118.365 77.15 118.165 76.95C117.965 76.75 117.865 76.5033 117.865 76.21V62.67C117.865 62.3633 117.965 62.1167 118.165 61.93C118.365 61.73 118.612 61.63 118.905 61.63H127.945C128.252 61.63 128.498 61.7233 128.685 61.91C128.872 62.0833 128.965 62.3167 128.965 62.61C128.965 62.89 128.872 63.1167 128.685 63.29C128.498 63.4633 128.252 63.55 127.945 63.55H119.945V68.41H125.685C125.992 68.41 126.238 68.5033 126.425 68.69C126.612 68.8633 126.705 69.09 126.705 69.37C126.705 69.65 126.612 69.8833 126.425 70.07C126.238 70.2433 125.992 70.33 125.685 70.33H119.945V76.21C119.945 76.5033 119.845 76.75 119.645 76.95C119.445 77.15 119.198 77.25 118.905 77.25Z" fill="#D24848"/>
<path d="M61.5966 77.25C61.3033 77.25 61.0566 77.15 60.8566 76.95C60.6566 76.75 60.5566 76.5033 60.5566 76.21V62.67C60.5566 62.3633 60.6566 62.1167 60.8566 61.93C61.0566 61.73 61.3033 61.63 61.5966 61.63H65.1966C66.1966 61.63 67.0833 61.8433 67.8566 62.27C68.63 62.6833 69.23 63.2567 69.6566 63.99C70.0966 64.7233 70.3166 65.5767 70.3166 66.55C70.3166 67.4567 70.0966 68.2633 69.6566 68.97C69.23 69.6767 68.63 70.23 67.8566 70.63C67.0833 71.03 66.1966 71.23 65.1966 71.23H62.6366V76.21C62.6366 76.5033 62.5366 76.75 62.3366 76.95C62.15 77.15 61.9033 77.25 61.5966 77.25ZM69.8966 77.25C69.71 77.25 69.5366 77.21 69.3766 77.13C69.23 77.05 69.1033 76.9233 68.9966 76.75L65.3966 70.95L67.4166 70.37L70.6966 75.65C70.9366 76.0367 70.97 76.4033 70.7966 76.75C70.6233 77.0833 70.3233 77.25 69.8966 77.25ZM62.6366 69.31H65.1966C65.81 69.31 66.35 69.1967 66.8166 68.97C67.2833 68.73 67.65 68.4033 67.9166 67.99C68.1833 67.5633 68.3166 67.0833 68.3166 66.55C68.3166 65.9633 68.1833 65.4433 67.9166 64.99C67.65 64.5367 67.2833 64.1833 66.8166 63.93C66.35 63.6767 65.81 63.55 65.1966 63.55H62.6366V69.31Z" fill="#D24848"/>
<path d="M117.974 18C117.6 18 117.314 17.84 117.114 17.52C116.914 17.2 116.894 16.86 117.054 16.5L122.674 3.08C122.874 2.61333 123.2 2.38 123.654 2.38C124.134 2.38 124.46 2.61333 124.634 3.08L130.274 16.54C130.42 16.9133 130.394 17.2533 130.194 17.56C130.007 17.8533 129.72 18 129.334 18C129.134 18 128.94 17.9467 128.754 17.84C128.58 17.72 128.454 17.56 128.374 17.36L123.414 5.04H123.974L118.934 17.36C118.84 17.5733 118.7 17.7333 118.514 17.84C118.34 17.9467 118.16 18 117.974 18ZM119.034 14.56L119.834 12.84H127.674L128.474 14.56H119.034Z" fill="#D24848"/>
<path d="M60.9541 18.5C60.6607 18.5 60.4141 18.4 60.2141 18.2C60.0141 18 59.9141 17.7533 59.9141 17.46V3.92C59.9141 3.61333 60.0141 3.36667 60.2141 3.18C60.4141 2.98 60.6607 2.88 60.9541 2.88C61.2607 2.88 61.5074 2.98 61.6941 3.18C61.8941 3.36667 61.9941 3.61333 61.9941 3.92V9.66H71.2741V3.92C71.2741 3.61333 71.3741 3.36667 71.5741 3.18C71.7741 2.98 72.0207 2.88 72.3141 2.88C72.6207 2.88 72.8674 2.98 73.0541 3.18C73.2407 3.36667 73.3341 3.61333 73.3341 3.92V17.46C73.3341 17.7533 73.2407 18 73.0541 18.2C72.8674 18.4 72.6207 18.5 72.3141 18.5C72.0207 18.5 71.7741 18.4 71.5741 18.2C71.3741 18 71.2741 17.7533 71.2741 17.46V11.5H61.9941V17.46C61.9941 17.7533 61.8941 18 61.6941 18.2C61.5074 18.4 61.2607 18.5 60.9541 18.5Z" fill="#D24848"/>
</g>
<path d="M5.12296 109.238C4.78385 109.143 4.53085 108.948 4.36397 108.653C4.19708 108.357 4.16082 108.04 4.25518 107.701L8.61066 92.0473C8.70931 91.6928 8.90427 91.4398 9.19553 91.2883C9.49108 91.1214 9.80842 91.0852 10.1475 91.1795C10.61 91.3082 10.9045 91.6226 11.031 92.1229L14.2343 108.634L13.4944 108.428L24.5803 95.8929C24.947 95.5299 25.3616 95.4128 25.824 95.5414C26.1631 95.6358 26.4161 95.8308 26.583 96.1263C26.7542 96.4064 26.7904 96.7238 26.6918 97.0783L22.3363 112.732C22.2419 113.071 22.0393 113.322 21.7283 113.484C21.4328 113.651 21.1231 113.69 20.7994 113.599C20.4603 113.505 20.2073 113.31 20.0404 113.015C19.8736 112.719 19.8373 112.402 19.9317 112.063L23.3607 99.7387L23.8553 99.7518L14.3619 110.413C13.9884 110.741 13.5858 110.845 13.1542 110.725C12.6455 110.583 12.3421 110.241 12.2438 109.699L9.59429 96.0328L10.0889 96.0459L6.65983 108.37C6.56547 108.709 6.37052 108.962 6.07497 109.129C5.77942 109.296 5.46208 109.332 5.12296 109.238Z" fill="#014D7C"/>
<path d="M31.4413 116.039C31.0011 115.955 30.6989 115.702 30.5347 115.28C30.3705 114.858 30.423 114.453 30.6921 114.064L40.3198 99.4998C40.66 98.9943 41.0973 98.7923 41.6317 98.8937C42.1977 99.0011 42.5306 99.3492 42.6306 99.9382L46.2692 117.069C46.3586 117.542 46.2511 117.937 45.9467 118.253C45.661 118.557 45.2902 118.666 44.8343 118.58C44.5985 118.535 44.3825 118.429 44.1863 118.261C44.0088 118.081 43.8953 117.864 43.8457 117.61L40.7538 101.976L41.414 102.101L32.7162 115.499C32.5585 115.729 32.3576 115.887 32.1137 115.971C31.8855 116.058 31.6613 116.08 31.4413 116.039ZM33.4604 112.22L34.7884 110.371L44.0315 112.125L44.5899 114.332L33.4604 112.22Z" fill="#014D7C"/>
<path d="M55.237 120.087C54.8874 120.046 54.6074 119.893 54.397 119.626C54.1866 119.36 54.1019 119.052 54.1429 118.703L56.0359 102.565C56.0788 102.2 56.2325 101.92 56.497 101.725C56.7633 101.515 57.0713 101.43 57.4209 101.471L61.7114 101.974C62.9033 102.114 63.9302 102.492 64.7922 103.109C65.6561 103.71 66.291 104.477 66.697 105.411C67.1189 106.346 67.2618 107.394 67.1257 108.554C66.9989 109.635 66.624 110.565 66.0008 111.346C65.3934 112.129 64.601 112.704 63.6234 113.073C62.6458 113.441 61.5611 113.556 60.3692 113.416L57.3181 113.058L56.6219 118.993C56.5809 119.343 56.4272 119.623 56.1609 119.833C55.9104 120.046 55.6025 120.13 55.237 120.087ZM65.1291 121.248C64.9067 121.222 64.7057 121.15 64.5262 121.032C64.3625 120.916 64.2293 120.748 64.1264 120.526L60.6467 113.11L63.1353 112.701L66.3063 119.453C66.5383 119.947 66.5267 120.389 66.2717 120.778C66.0185 121.151 65.6376 121.308 65.1291 121.248ZM57.5866 110.77L60.6377 111.128C61.3687 111.213 62.0281 111.154 62.616 110.949C63.2057 110.728 63.6884 110.39 64.064 109.935C64.4415 109.463 64.6675 108.91 64.7421 108.274C64.8241 107.575 64.7379 106.937 64.4834 106.359C64.229 105.782 63.8414 105.309 63.3206 104.942C62.7999 104.575 62.174 104.348 61.443 104.263L58.3919 103.905L57.5866 110.77Z" fill="#014D7C"/>
<path d="M74.2949 122.04C73.8474 122.019 73.5126 121.811 73.2905 121.417C73.0684 121.022 73.0633 120.613 73.2749 120.191L80.7532 104.414C81.0187 103.866 81.4232 103.604 81.9666 103.629C82.542 103.656 82.9207 103.954 83.1027 104.523L89.1199 120.969C89.2751 121.425 89.2244 121.831 88.9677 122.187C88.7277 122.529 88.376 122.689 87.9124 122.667C87.6727 122.656 87.4439 122.582 87.226 122.443C87.0249 122.29 86.8819 122.091 86.797 121.847L81.5319 106.805L82.2032 106.836L75.481 121.326C75.3574 121.576 75.1807 121.76 74.9511 121.878C74.7374 121.996 74.5187 122.05 74.2949 122.04ZM75.7556 117.975L76.8096 115.957L86.2076 116.39L87.0716 118.496L75.7556 117.975Z" fill="#014D7C"/>
<path d="M102.718 122.587C102.367 122.596 102.068 122.483 101.822 122.249C101.576 122.015 101.449 121.722 101.44 121.371L101.008 103.88L103.504 103.818L103.935 121.309C103.944 121.661 103.831 121.96 103.597 122.206C103.363 122.451 103.07 122.579 102.718 122.587ZM95.8828 106.311C95.5469 106.319 95.2644 106.222 95.0354 106.02C94.8219 105.801 94.711 105.524 94.7027 105.188C94.6945 104.852 94.7917 104.577 94.9945 104.364C95.2129 104.135 95.4901 104.016 95.826 104.008L108.662 103.691C108.998 103.683 109.273 103.788 109.486 104.007C109.715 104.209 109.834 104.478 109.842 104.814C109.85 105.15 109.745 105.433 109.527 105.662C109.324 105.875 109.055 105.986 108.719 105.994L95.8828 106.311Z" fill="#014D7C"/>
<path d="M126.977 121.269C125.576 121.417 124.271 121.322 123.061 120.983C121.849 120.629 120.777 120.074 119.844 119.32C118.926 118.548 118.175 117.606 117.591 116.493C117.005 115.364 116.638 114.1 116.49 112.7C116.342 111.3 116.438 109.994 116.776 108.784C117.115 107.574 117.654 106.503 118.392 105.573C119.144 104.624 120.077 103.858 121.19 103.274C122.301 102.674 123.557 102.3 124.957 102.152C126.357 102.004 127.655 102.108 128.851 102.464C130.061 102.803 131.134 103.357 132.068 104.128C133 104.882 133.758 105.815 134.343 106.928C134.927 108.041 135.293 109.297 135.441 110.698C135.589 112.098 135.494 113.411 135.157 114.637C134.818 115.847 134.273 116.927 133.52 117.875C132.766 118.807 131.833 119.574 130.722 120.174C129.625 120.756 128.377 121.121 126.977 121.269ZM126.74 119.026C127.774 118.917 128.701 118.634 129.522 118.177C130.357 117.703 131.058 117.106 131.625 116.386C132.191 115.65 132.594 114.819 132.834 113.893C133.09 112.965 133.163 111.984 133.054 110.95C132.945 109.915 132.668 108.971 132.224 108.117C131.795 107.262 131.229 106.541 130.523 105.956C129.816 105.355 129.006 104.918 128.092 104.644C127.194 104.369 126.228 104.286 125.194 104.395C124.16 104.505 123.224 104.788 122.388 105.247C121.567 105.704 120.874 106.3 120.308 107.035C119.757 107.753 119.353 108.576 119.097 109.504C118.841 110.432 118.768 111.413 118.877 112.448C118.986 113.482 119.263 114.426 119.707 115.28C120.151 116.134 120.719 116.862 121.41 117.465C122.115 118.05 122.918 118.488 123.818 118.78C124.731 119.053 125.705 119.135 126.74 119.026Z" fill="#014D7C"/>
<path d="M147.506 118.249C147.161 118.316 146.847 118.255 146.566 118.065C146.3 117.872 146.133 117.603 146.066 117.258L142.959 101.31C142.888 100.948 142.942 100.636 143.119 100.374C143.308 100.092 143.576 99.9178 143.921 99.8505C144.298 99.7771 144.642 99.8651 144.951 100.114L157.884 111.776L155.373 98.8906C155.303 98.5294 155.364 98.2159 155.557 97.9502C155.746 97.6687 156.014 97.4943 156.36 97.427C156.721 97.3566 157.034 97.4178 157.3 97.6105C157.563 97.7875 157.729 98.0567 157.8 98.4179L160.907 114.366C160.974 114.711 160.921 115.023 160.747 115.302C160.573 115.58 160.305 115.755 159.944 115.825C159.787 115.856 159.608 115.858 159.408 115.832C159.22 115.787 159.057 115.705 158.919 115.585L145.986 103.923L148.492 116.785C148.56 117.13 148.499 117.444 148.309 117.725C148.135 118.004 147.867 118.178 147.506 118.249Z" fill="#014D7C"/>
<path d="M178.594 111.506C177.116 111.925 175.731 112.027 174.439 111.811C173.143 111.58 172.034 111.071 171.113 110.285C170.207 109.494 169.577 108.475 169.223 107.228L166.166 96.4455C166.065 96.0914 166.1 95.7739 166.27 95.4929C166.435 95.1966 166.687 95.0004 167.026 94.9043C167.38 94.8039 167.697 94.8386 167.978 95.0084C168.27 95.1584 168.466 95.4105 168.567 95.7645L171.625 106.547C171.86 107.379 172.285 108.056 172.9 108.581C173.525 109.085 174.275 109.413 175.149 109.564C176.035 109.696 176.978 109.619 177.978 109.336C178.948 109.061 179.752 108.641 180.391 108.078C181.04 107.495 181.483 106.828 181.72 106.079C181.968 105.311 181.974 104.511 181.738 103.68L178.68 92.8967C178.58 92.5427 178.614 92.2252 178.784 91.9442C178.95 91.6478 179.202 91.4516 179.54 91.3556C179.894 91.2552 180.212 91.2899 180.493 91.4597C180.769 91.6141 180.958 91.8683 181.058 92.2223L184.116 103.005C184.47 104.252 184.468 105.45 184.112 106.599C183.771 107.743 183.126 108.749 182.174 109.618C181.219 110.471 180.025 111.1 178.594 111.506Z" fill="#014D7C"/>
<defs>
<clipPath id="clip0_305_83">
<rect width="80" height="80" fill="white" transform="translate(54)"/>
</clipPath>
</defs>
</svg>
